<svg width="96" height="96" viewBox="0 0 96 96" fill="none" xmlns="http://www.w3.org/2000/svg">
<path fill-rule="evenodd" clip-rule="evenodd" d="M18.3327 96L61.5623 70.9319C62.5185 73.5617 63.1416 76.11 63.1934 78.045C62.548 78.8715 62.3681 80.0336 62.8253 81.0573L81.359 72.3796C80.9085 71.3725 79.9545 70.7552 78.9387 70.6976L78.3005 69.8096C74.0976 64.4406 71.9875 59.7207 70.7673 52.9553L70.5278 51.8809C71.1493 51.0567 71.3175 49.9139 70.867 48.9068L52.3333 57.5839C52.7905 58.607 53.7678 59.2277 54.8009 59.2682C56.2711 60.6423 57.8299 62.9513 59.1999 65.5737L16.251 86.6138L22.0021 82.5705C29.1522 64.7774 36.5178 46.4069 43.0681 28.4109C43.581 27.0014 43.9446 27.3605 44.3462 28.4109C48.0429 38.0883 49.9263 42.1841 51.4751 46.546L64.8268 40.1761C58.3506 23.5691 51.1192 7.34113 49.6228 3.80621C48.5675 1.31263 47.5311 0 46.718 0C45.6722 0 44.7065 1.66373 43.351 5.12853L12.9146 82.9182C10.6112 88.8059 8.60972 92.6024 3.46393 93.5503H1.19679C0.538527 93.5503 0 94.1015 0 94.7746V96H1.63117H18.3327Z" fill="white"/>
<path fill-rule="evenodd" clip-rule="evenodd" d="M85.103 74.9364V74.937C85.7496 76.3824 85.122 78.1066 83.7091 78.7683L66.0107 87.0544C64.5979 87.7161 62.9133 87.0744 62.2672 85.6284C61.6207 84.1824 62.2478 82.4582 63.6606 81.7971L81.3595 73.5104C82.7719 72.8492 84.4565 73.491 85.103 74.9364Z" fill="white"/>
<path fill-rule="evenodd" clip-rule="evenodd" d="M71.425 44.3357C70.779 42.8897 69.0943 42.2479 67.6815 42.9091L49.9831 51.1958C48.5702 51.8569 47.9432 53.5811 48.5892 55.0271C49.2357 56.473 50.9204 57.1148 52.3327 56.4531L70.0316 48.167C71.4445 47.5058 72.0715 45.7817 71.425 44.3357Z" fill="white"/>
<path fill-rule="evenodd" clip-rule="evenodd" d="M63.391 90.403H92.0019C92.6607 90.403 93.1992 90.9541 93.1992 91.6278V92.68H94.3776C95.2698 92.68 95.9999 93.4272 95.9999 94.3397V96H59.3936V94.3397C59.3936 93.4272 60.1231 92.68 61.0153 92.68H62.1942V91.6278C62.1942 90.9541 62.7327 90.403 63.391 90.403Z" fill="white"/>
</svg>
