<svg width="20" height="20" viewBox="0 0 20 20" fill="none" xmlns="http://www.w3.org/2000/svg">
<path d="M13.3333 6.79167C13.3031 6.79167 13.2719 6.77939 13.2462 6.75374C13.2206 6.7281 13.2083 6.69682 13.2083 6.66667V3.75001C13.2083 3.1955 13.0342 2.6938 12.6702 2.32978C12.3062 1.96577 11.8045 1.79167 11.25 1.79167H8.74996C8.19546 1.79167 7.69375 1.96577 7.32974 2.32978C6.96572 2.6938 6.79163 3.1955 6.79163 3.75001V6.66667C6.79163 6.69682 6.77934 6.7281 6.7537 6.75374C6.72805 6.77939 6.69677 6.79167 6.66663 6.79167C6.63648 6.79167 6.6052 6.77939 6.57955 6.75374C6.55391 6.7281 6.54163 6.69682 6.54163 6.66667V3.75001C6.54163 3.07422 6.77664 2.52835 7.15247 2.15252C7.52831 1.77668 8.07418 1.54167 8.74996 1.54167H11.25C11.9257 1.54167 12.4716 1.77668 12.8474 2.15252C13.2233 2.52835 13.4583 3.07422 13.4583 3.75001V6.66667C13.4583 6.69682 13.446 6.7281 13.4204 6.75374C13.3947 6.77939 13.3634 6.79167 13.3333 6.79167Z" fill="#FF4949" stroke="#FF4949"/>
<path d="M4.18806 8.41791L4.18814 8.4172C4.2863 7.58925 4.39891 7.00568 4.73767 6.60325C5.04961 6.23269 5.64992 5.91667 6.99995 5.91667H13C14.3498 5.91667 14.9505 6.23259 15.2636 6.60369C15.6037 7.00671 15.7178 7.59044 15.8202 8.41851C15.8203 8.41891 15.8203 8.41932 15.8204 8.41973L16.3757 13.0667H6.66662C6.05316 13.0667 5.54162 13.5612 5.54162 14.1917C5.54162 14.8095 6.04881 15.3167 6.66662 15.3167H16.6098C16.6136 16.0877 16.4391 16.6846 16.0608 17.0941C15.6718 17.5152 14.9785 17.8333 13.7416 17.8333H6.25828C4.88657 17.8333 4.18131 17.4438 3.81601 16.9444C3.43335 16.4213 3.32286 15.6457 3.43812 14.6674C3.43814 14.6672 3.43816 14.667 3.43818 14.6669L4.18806 8.41791Z" fill="#FF4949" stroke="#FF4949"/>
</svg>
